<mxfile host="app.diagrams.net" agent="Mozilla/5.0 (Windows NT 10.0; Win64; x64) AppleWebKit/537.36 (KHTML, like Gecko) Chrome/135.0.0.0 Safari/537.36 Edg/135.0.0.0" version="26.2.12">
  <diagram name="페이지-1" id="y3aFAPfPUJIp8wHcPQND">
    <mxGraphModel dx="1832" dy="934" grid="0" gridSize="10" guides="1" tooltips="1" connect="1" arrows="1" fold="1" page="0" pageScale="1" pageWidth="827" pageHeight="1169" math="0" shadow="0">
      <root>
        <mxCell id="0" />
        <mxCell id="1" parent="0" />
        <mxCell id="fMcfgkjwkaFw0rw7MeqL-1" value="" style="shape=table;startSize=0;container=1;collapsible=0;childLayout=tableLayout;fontSize=16;" parent="1" vertex="1">
          <mxGeometry x="-319" y="116" width="841" height="40" as="geometry" />
        </mxCell>
        <mxCell id="fMcfgkjwkaFw0rw7MeqL-2" value="" style="shape=tableRow;horizontal=0;startSize=0;swimlaneHead=0;swimlaneBody=0;strokeColor=inherit;top=0;left=0;bottom=0;right=0;collapsible=0;dropTarget=0;fillColor=none;points=[[0,0.5],[1,0.5]];portConstraint=eastwest;fontSize=16;" parent="fMcfgkjwkaFw0rw7MeqL-1" vertex="1">
          <mxGeometry width="841" height="40" as="geometry" />
        </mxCell>
        <mxCell id="fMcfgkjwkaFw0rw7MeqL-3" value="flightNumber" style="shape=partialRectangle;html=1;whiteSpace=wrap;connectable=0;strokeColor=inherit;overflow=hidden;fillColor=none;top=0;left=0;bottom=0;right=0;pointerEvents=1;fontSize=16;" parent="fMcfgkjwkaFw0rw7MeqL-2" vertex="1">
          <mxGeometry width="132" height="40" as="geometry">
            <mxRectangle width="132" height="40" as="alternateBounds" />
          </mxGeometry>
        </mxCell>
        <mxCell id="fMcfgkjwkaFw0rw7MeqL-4" value="airline" style="shape=partialRectangle;html=1;whiteSpace=wrap;connectable=0;strokeColor=inherit;overflow=hidden;fillColor=none;top=0;left=0;bottom=0;right=0;pointerEvents=1;fontSize=16;" parent="fMcfgkjwkaFw0rw7MeqL-2" vertex="1">
          <mxGeometry x="132" width="133" height="40" as="geometry">
            <mxRectangle width="133" height="40" as="alternateBounds" />
          </mxGeometry>
        </mxCell>
        <mxCell id="fMcfgkjwkaFw0rw7MeqL-5" value="departureAirport" style="shape=partialRectangle;html=1;whiteSpace=wrap;connectable=0;strokeColor=inherit;overflow=hidden;fillColor=none;top=0;left=0;bottom=0;right=0;pointerEvents=1;fontSize=16;" parent="fMcfgkjwkaFw0rw7MeqL-2" vertex="1">
          <mxGeometry x="265" width="143" height="40" as="geometry">
            <mxRectangle width="143" height="40" as="alternateBounds" />
          </mxGeometry>
        </mxCell>
        <mxCell id="fMcfgkjwkaFw0rw7MeqL-23" value="arrivalAirport" style="shape=partialRectangle;html=1;whiteSpace=wrap;connectable=0;strokeColor=inherit;overflow=hidden;fillColor=none;top=0;left=0;bottom=0;right=0;pointerEvents=1;fontSize=16;" parent="fMcfgkjwkaFw0rw7MeqL-2" vertex="1">
          <mxGeometry x="408" width="145" height="40" as="geometry">
            <mxRectangle width="145" height="40" as="alternateBounds" />
          </mxGeometry>
        </mxCell>
        <mxCell id="fMcfgkjwkaFw0rw7MeqL-24" value="departureDateTime" style="shape=partialRectangle;html=1;whiteSpace=wrap;connectable=0;strokeColor=inherit;overflow=hidden;fillColor=none;top=0;left=0;bottom=0;right=0;pointerEvents=1;fontSize=16;" parent="fMcfgkjwkaFw0rw7MeqL-2" vertex="1">
          <mxGeometry x="553" width="144" height="40" as="geometry">
            <mxRectangle width="144" height="40" as="alternateBounds" />
          </mxGeometry>
        </mxCell>
        <mxCell id="fMcfgkjwkaFw0rw7MeqL-25" value="arrivalDateTime" style="shape=partialRectangle;html=1;whiteSpace=wrap;connectable=0;strokeColor=inherit;overflow=hidden;fillColor=none;top=0;left=0;bottom=0;right=0;pointerEvents=1;fontSize=16;" parent="fMcfgkjwkaFw0rw7MeqL-2" vertex="1">
          <mxGeometry x="697" width="144" height="40" as="geometry">
            <mxRectangle width="144" height="40" as="alternateBounds" />
          </mxGeometry>
        </mxCell>
        <mxCell id="fMcfgkjwkaFw0rw7MeqL-27" value="Airplane" style="text;strokeColor=none;fillColor=none;html=1;align=center;verticalAlign=middle;whiteSpace=wrap;rounded=0;fontSize=16;" parent="1" vertex="1">
          <mxGeometry x="-322" y="65" width="60" height="30" as="geometry" />
        </mxCell>
        <mxCell id="fMcfgkjwkaFw0rw7MeqL-28" value="" style="shape=table;startSize=0;container=1;collapsible=0;childLayout=tableLayout;fontSize=16;" parent="1" vertex="1">
          <mxGeometry x="-319" y="228" width="698" height="40" as="geometry" />
        </mxCell>
        <mxCell id="fMcfgkjwkaFw0rw7MeqL-29" value="" style="shape=tableRow;horizontal=0;startSize=0;swimlaneHead=0;swimlaneBody=0;strokeColor=inherit;top=0;left=0;bottom=0;right=0;collapsible=0;dropTarget=0;fillColor=none;points=[[0,0.5],[1,0.5]];portConstraint=eastwest;fontSize=16;" parent="fMcfgkjwkaFw0rw7MeqL-28" vertex="1">
          <mxGeometry width="698" height="40" as="geometry" />
        </mxCell>
        <mxCell id="fMcfgkjwkaFw0rw7MeqL-30" value="no_of_seats" style="shape=partialRectangle;html=1;whiteSpace=wrap;connectable=0;strokeColor=inherit;overflow=hidden;fillColor=none;top=0;left=0;bottom=0;right=0;pointerEvents=1;fontSize=16;" parent="fMcfgkjwkaFw0rw7MeqL-29" vertex="1">
          <mxGeometry width="132" height="40" as="geometry">
            <mxRectangle width="132" height="40" as="alternateBounds" />
          </mxGeometry>
        </mxCell>
        <mxCell id="fMcfgkjwkaFw0rw7MeqL-31" value="seatClass" style="shape=partialRectangle;html=1;whiteSpace=wrap;connectable=0;strokeColor=inherit;overflow=hidden;fillColor=none;top=0;left=0;bottom=0;right=0;pointerEvents=1;fontSize=16;" parent="fMcfgkjwkaFw0rw7MeqL-29" vertex="1">
          <mxGeometry x="132" width="133" height="40" as="geometry">
            <mxRectangle width="133" height="40" as="alternateBounds" />
          </mxGeometry>
        </mxCell>
        <mxCell id="fMcfgkjwkaFw0rw7MeqL-32" value="price" style="shape=partialRectangle;html=1;whiteSpace=wrap;connectable=0;strokeColor=inherit;overflow=hidden;fillColor=none;top=0;left=0;bottom=0;right=0;pointerEvents=1;fontSize=16;" parent="fMcfgkjwkaFw0rw7MeqL-29" vertex="1">
          <mxGeometry x="265" width="143" height="40" as="geometry">
            <mxRectangle width="143" height="40" as="alternateBounds" />
          </mxGeometry>
        </mxCell>
        <mxCell id="fMcfgkjwkaFw0rw7MeqL-33" value="flightNumber" style="shape=partialRectangle;html=1;whiteSpace=wrap;connectable=0;strokeColor=inherit;overflow=hidden;fillColor=none;top=0;left=0;bottom=0;right=0;pointerEvents=1;fontSize=16;" parent="fMcfgkjwkaFw0rw7MeqL-29" vertex="1">
          <mxGeometry x="408" width="145" height="40" as="geometry">
            <mxRectangle width="145" height="40" as="alternateBounds" />
          </mxGeometry>
        </mxCell>
        <mxCell id="U8XAQQa5bbqCl7K_fhFv-2" value="departureDateTime" style="shape=partialRectangle;html=1;whiteSpace=wrap;connectable=0;strokeColor=inherit;overflow=hidden;fillColor=none;top=0;left=0;bottom=0;right=0;pointerEvents=1;fontSize=16;" vertex="1" parent="fMcfgkjwkaFw0rw7MeqL-29">
          <mxGeometry x="553" width="145" height="40" as="geometry">
            <mxRectangle width="145" height="40" as="alternateBounds" />
          </mxGeometry>
        </mxCell>
        <mxCell id="fMcfgkjwkaFw0rw7MeqL-36" value="Seats" style="text;strokeColor=none;fillColor=none;html=1;align=center;verticalAlign=middle;whiteSpace=wrap;rounded=0;fontSize=16;" parent="1" vertex="1">
          <mxGeometry x="-322" y="193" width="60" height="30" as="geometry" />
        </mxCell>
        <mxCell id="fMcfgkjwkaFw0rw7MeqL-37" value="" style="shape=table;startSize=0;container=1;collapsible=0;childLayout=tableLayout;fontSize=16;" parent="1" vertex="1">
          <mxGeometry x="-319" y="337" width="843" height="40" as="geometry" />
        </mxCell>
        <mxCell id="fMcfgkjwkaFw0rw7MeqL-38" value="" style="shape=tableRow;horizontal=0;startSize=0;swimlaneHead=0;swimlaneBody=0;strokeColor=inherit;top=0;left=0;bottom=0;right=0;collapsible=0;dropTarget=0;fillColor=none;points=[[0,0.5],[1,0.5]];portConstraint=eastwest;fontSize=16;" parent="fMcfgkjwkaFw0rw7MeqL-37" vertex="1">
          <mxGeometry width="843" height="40" as="geometry" />
        </mxCell>
        <mxCell id="fMcfgkjwkaFw0rw7MeqL-39" value="cno" style="shape=partialRectangle;html=1;whiteSpace=wrap;connectable=0;strokeColor=inherit;overflow=hidden;fillColor=none;top=0;left=0;bottom=0;right=0;pointerEvents=1;fontSize=16;" parent="fMcfgkjwkaFw0rw7MeqL-38" vertex="1">
          <mxGeometry width="132" height="40" as="geometry">
            <mxRectangle width="132" height="40" as="alternateBounds" />
          </mxGeometry>
        </mxCell>
        <mxCell id="fMcfgkjwkaFw0rw7MeqL-40" value="flightNumber" style="shape=partialRectangle;html=1;whiteSpace=wrap;connectable=0;strokeColor=inherit;overflow=hidden;fillColor=none;top=0;left=0;bottom=0;right=0;pointerEvents=1;fontSize=16;" parent="fMcfgkjwkaFw0rw7MeqL-38" vertex="1">
          <mxGeometry x="132" width="133" height="40" as="geometry">
            <mxRectangle width="133" height="40" as="alternateBounds" />
          </mxGeometry>
        </mxCell>
        <mxCell id="fMcfgkjwkaFw0rw7MeqL-41" value="seatClass" style="shape=partialRectangle;html=1;whiteSpace=wrap;connectable=0;strokeColor=inherit;overflow=hidden;fillColor=none;top=0;left=0;bottom=0;right=0;pointerEvents=1;fontSize=16;" parent="fMcfgkjwkaFw0rw7MeqL-38" vertex="1">
          <mxGeometry x="265" width="143" height="40" as="geometry">
            <mxRectangle width="143" height="40" as="alternateBounds" />
          </mxGeometry>
        </mxCell>
        <mxCell id="fMcfgkjwkaFw0rw7MeqL-42" value="reserveDateTime" style="shape=partialRectangle;html=1;whiteSpace=wrap;connectable=0;strokeColor=inherit;overflow=hidden;fillColor=none;top=0;left=0;bottom=0;right=0;pointerEvents=1;fontSize=16;" parent="fMcfgkjwkaFw0rw7MeqL-38" vertex="1">
          <mxGeometry x="408" width="145" height="40" as="geometry">
            <mxRectangle width="145" height="40" as="alternateBounds" />
          </mxGeometry>
        </mxCell>
        <mxCell id="fMcfgkjwkaFw0rw7MeqL-43" value="payment" style="shape=partialRectangle;html=1;whiteSpace=wrap;connectable=0;strokeColor=inherit;overflow=hidden;fillColor=none;top=0;left=0;bottom=0;right=0;pointerEvents=1;fontSize=16;" parent="fMcfgkjwkaFw0rw7MeqL-38" vertex="1">
          <mxGeometry x="553" width="145" height="40" as="geometry">
            <mxRectangle width="145" height="40" as="alternateBounds" />
          </mxGeometry>
        </mxCell>
        <mxCell id="U8XAQQa5bbqCl7K_fhFv-5" value="departureDateTime" style="shape=partialRectangle;html=1;whiteSpace=wrap;connectable=0;strokeColor=inherit;overflow=hidden;fillColor=none;top=0;left=0;bottom=0;right=0;pointerEvents=1;fontSize=16;" vertex="1" parent="fMcfgkjwkaFw0rw7MeqL-38">
          <mxGeometry x="698" width="145" height="40" as="geometry">
            <mxRectangle width="145" height="40" as="alternateBounds" />
          </mxGeometry>
        </mxCell>
        <mxCell id="fMcfgkjwkaFw0rw7MeqL-44" value="Reserve" style="text;strokeColor=none;fillColor=none;html=1;align=center;verticalAlign=middle;whiteSpace=wrap;rounded=0;fontSize=16;" parent="1" vertex="1">
          <mxGeometry x="-319" y="298" width="60" height="30" as="geometry" />
        </mxCell>
        <mxCell id="fMcfgkjwkaFw0rw7MeqL-45" value="" style="shape=table;startSize=0;container=1;collapsible=0;childLayout=tableLayout;fontSize=16;" parent="1" vertex="1">
          <mxGeometry x="-319" y="450" width="698" height="40" as="geometry" />
        </mxCell>
        <mxCell id="fMcfgkjwkaFw0rw7MeqL-46" value="" style="shape=tableRow;horizontal=0;startSize=0;swimlaneHead=0;swimlaneBody=0;strokeColor=inherit;top=0;left=0;bottom=0;right=0;collapsible=0;dropTarget=0;fillColor=none;points=[[0,0.5],[1,0.5]];portConstraint=eastwest;fontSize=16;" parent="fMcfgkjwkaFw0rw7MeqL-45" vertex="1">
          <mxGeometry width="698" height="40" as="geometry" />
        </mxCell>
        <mxCell id="fMcfgkjwkaFw0rw7MeqL-47" value="cno" style="shape=partialRectangle;html=1;whiteSpace=wrap;connectable=0;strokeColor=inherit;overflow=hidden;fillColor=none;top=0;left=0;bottom=0;right=0;pointerEvents=1;fontSize=16;" parent="fMcfgkjwkaFw0rw7MeqL-46" vertex="1">
          <mxGeometry width="132" height="40" as="geometry">
            <mxRectangle width="132" height="40" as="alternateBounds" />
          </mxGeometry>
        </mxCell>
        <mxCell id="fMcfgkjwkaFw0rw7MeqL-48" value="name" style="shape=partialRectangle;html=1;whiteSpace=wrap;connectable=0;strokeColor=inherit;overflow=hidden;fillColor=none;top=0;left=0;bottom=0;right=0;pointerEvents=1;fontSize=16;" parent="fMcfgkjwkaFw0rw7MeqL-46" vertex="1">
          <mxGeometry x="132" width="133" height="40" as="geometry">
            <mxRectangle width="133" height="40" as="alternateBounds" />
          </mxGeometry>
        </mxCell>
        <mxCell id="fMcfgkjwkaFw0rw7MeqL-49" value="passwd" style="shape=partialRectangle;html=1;whiteSpace=wrap;connectable=0;strokeColor=inherit;overflow=hidden;fillColor=none;top=0;left=0;bottom=0;right=0;pointerEvents=1;fontSize=16;" parent="fMcfgkjwkaFw0rw7MeqL-46" vertex="1">
          <mxGeometry x="265" width="143" height="40" as="geometry">
            <mxRectangle width="143" height="40" as="alternateBounds" />
          </mxGeometry>
        </mxCell>
        <mxCell id="fMcfgkjwkaFw0rw7MeqL-50" value="email" style="shape=partialRectangle;html=1;whiteSpace=wrap;connectable=0;strokeColor=inherit;overflow=hidden;fillColor=none;top=0;left=0;bottom=0;right=0;pointerEvents=1;fontSize=16;" parent="fMcfgkjwkaFw0rw7MeqL-46" vertex="1">
          <mxGeometry x="408" width="145" height="40" as="geometry">
            <mxRectangle width="145" height="40" as="alternateBounds" />
          </mxGeometry>
        </mxCell>
        <mxCell id="fMcfgkjwkaFw0rw7MeqL-51" value="passportNumber" style="shape=partialRectangle;html=1;whiteSpace=wrap;connectable=0;strokeColor=inherit;overflow=hidden;fillColor=none;top=0;left=0;bottom=0;right=0;pointerEvents=1;fontSize=16;" parent="fMcfgkjwkaFw0rw7MeqL-46" vertex="1">
          <mxGeometry x="553" width="145" height="40" as="geometry">
            <mxRectangle width="145" height="40" as="alternateBounds" />
          </mxGeometry>
        </mxCell>
        <mxCell id="fMcfgkjwkaFw0rw7MeqL-52" value="Customer" style="text;strokeColor=none;fillColor=none;html=1;align=center;verticalAlign=middle;whiteSpace=wrap;rounded=0;fontSize=16;" parent="1" vertex="1">
          <mxGeometry x="-319" y="409" width="60" height="30" as="geometry" />
        </mxCell>
        <mxCell id="fMcfgkjwkaFw0rw7MeqL-53" value="" style="shape=table;startSize=0;container=1;collapsible=0;childLayout=tableLayout;fontSize=16;" parent="1" vertex="1">
          <mxGeometry x="-319" y="552" width="843" height="40" as="geometry" />
        </mxCell>
        <mxCell id="fMcfgkjwkaFw0rw7MeqL-54" value="" style="shape=tableRow;horizontal=0;startSize=0;swimlaneHead=0;swimlaneBody=0;strokeColor=inherit;top=0;left=0;bottom=0;right=0;collapsible=0;dropTarget=0;fillColor=none;points=[[0,0.5],[1,0.5]];portConstraint=eastwest;fontSize=16;" parent="fMcfgkjwkaFw0rw7MeqL-53" vertex="1">
          <mxGeometry width="843" height="40" as="geometry" />
        </mxCell>
        <mxCell id="fMcfgkjwkaFw0rw7MeqL-55" value="cno" style="shape=partialRectangle;html=1;whiteSpace=wrap;connectable=0;strokeColor=inherit;overflow=hidden;fillColor=none;top=0;left=0;bottom=0;right=0;pointerEvents=1;fontSize=16;" parent="fMcfgkjwkaFw0rw7MeqL-54" vertex="1">
          <mxGeometry width="132" height="40" as="geometry">
            <mxRectangle width="132" height="40" as="alternateBounds" />
          </mxGeometry>
        </mxCell>
        <mxCell id="fMcfgkjwkaFw0rw7MeqL-56" value="flightNumber" style="shape=partialRectangle;html=1;whiteSpace=wrap;connectable=0;strokeColor=inherit;overflow=hidden;fillColor=none;top=0;left=0;bottom=0;right=0;pointerEvents=1;fontSize=16;" parent="fMcfgkjwkaFw0rw7MeqL-54" vertex="1">
          <mxGeometry x="132" width="133" height="40" as="geometry">
            <mxRectangle width="133" height="40" as="alternateBounds" />
          </mxGeometry>
        </mxCell>
        <mxCell id="fMcfgkjwkaFw0rw7MeqL-57" value="seatClass" style="shape=partialRectangle;html=1;whiteSpace=wrap;connectable=0;strokeColor=inherit;overflow=hidden;fillColor=none;top=0;left=0;bottom=0;right=0;pointerEvents=1;fontSize=16;" parent="fMcfgkjwkaFw0rw7MeqL-54" vertex="1">
          <mxGeometry x="265" width="143" height="40" as="geometry">
            <mxRectangle width="143" height="40" as="alternateBounds" />
          </mxGeometry>
        </mxCell>
        <mxCell id="fMcfgkjwkaFw0rw7MeqL-58" value="cancelDateTime" style="shape=partialRectangle;html=1;whiteSpace=wrap;connectable=0;strokeColor=inherit;overflow=hidden;fillColor=none;top=0;left=0;bottom=0;right=0;pointerEvents=1;fontSize=16;" parent="fMcfgkjwkaFw0rw7MeqL-54" vertex="1">
          <mxGeometry x="408" width="145" height="40" as="geometry">
            <mxRectangle width="145" height="40" as="alternateBounds" />
          </mxGeometry>
        </mxCell>
        <mxCell id="fMcfgkjwkaFw0rw7MeqL-59" value="refund" style="shape=partialRectangle;html=1;whiteSpace=wrap;connectable=0;strokeColor=inherit;overflow=hidden;fillColor=none;top=0;left=0;bottom=0;right=0;pointerEvents=1;fontSize=16;" parent="fMcfgkjwkaFw0rw7MeqL-54" vertex="1">
          <mxGeometry x="553" width="145" height="40" as="geometry">
            <mxRectangle width="145" height="40" as="alternateBounds" />
          </mxGeometry>
        </mxCell>
        <mxCell id="U8XAQQa5bbqCl7K_fhFv-6" value="departureDateTime" style="shape=partialRectangle;html=1;whiteSpace=wrap;connectable=0;strokeColor=inherit;overflow=hidden;fillColor=none;top=0;left=0;bottom=0;right=0;pointerEvents=1;fontSize=16;" vertex="1" parent="fMcfgkjwkaFw0rw7MeqL-54">
          <mxGeometry x="698" width="145" height="40" as="geometry">
            <mxRectangle width="145" height="40" as="alternateBounds" />
          </mxGeometry>
        </mxCell>
        <mxCell id="fMcfgkjwkaFw0rw7MeqL-60" value="Cancel" style="text;strokeColor=none;fillColor=none;html=1;align=center;verticalAlign=middle;whiteSpace=wrap;rounded=0;fontSize=16;" parent="1" vertex="1">
          <mxGeometry x="-319" y="510" width="60" height="30" as="geometry" />
        </mxCell>
        <mxCell id="fMcfgkjwkaFw0rw7MeqL-62" value="" style="line;strokeWidth=2;direction=west;html=1;" parent="1" vertex="1">
          <mxGeometry x="-302" y="146" width="93" height="10" as="geometry" />
        </mxCell>
        <mxCell id="fMcfgkjwkaFw0rw7MeqL-64" value="" style="line;strokeWidth=2;direction=west;html=1;" parent="1" vertex="1">
          <mxGeometry x="-270.5" y="364" width="30" height="10" as="geometry" />
        </mxCell>
        <mxCell id="fMcfgkjwkaFw0rw7MeqL-65" value="" style="line;strokeWidth=2;direction=west;html=1;" parent="1" vertex="1">
          <mxGeometry x="-270.5" y="480" width="32.5" height="10" as="geometry" />
        </mxCell>
        <mxCell id="fMcfgkjwkaFw0rw7MeqL-66" value="" style="line;strokeWidth=2;direction=west;html=1;" parent="1" vertex="1">
          <mxGeometry x="-270.5" y="579" width="31.5" height="10" as="geometry" />
        </mxCell>
        <mxCell id="fMcfgkjwkaFw0rw7MeqL-67" value="" style="edgeStyle=segmentEdgeStyle;endArrow=classic;html=1;curved=0;rounded=0;fontSize=12;entryX=0.074;entryY=1.025;entryDx=0;entryDy=0;entryPerimeter=0;" parent="1" target="fMcfgkjwkaFw0rw7MeqL-2" edge="1">
          <mxGeometry width="50" height="50" relative="1" as="geometry">
            <mxPoint x="166" y="197" as="sourcePoint" />
            <mxPoint x="-28" y="278" as="targetPoint" />
          </mxGeometry>
        </mxCell>
        <mxCell id="fMcfgkjwkaFw0rw7MeqL-69" value="" style="endArrow=none;html=1;rounded=0;fontSize=12;startSize=8;endSize=8;curved=1;exitX=0.692;exitY=0;exitDx=0;exitDy=0;exitPerimeter=0;" parent="1" source="fMcfgkjwkaFw0rw7MeqL-29" edge="1">
          <mxGeometry width="50" height="50" relative="1" as="geometry">
            <mxPoint x="7" y="328" as="sourcePoint" />
            <mxPoint x="165" y="198" as="targetPoint" />
          </mxGeometry>
        </mxCell>
        <mxCell id="fMcfgkjwkaFw0rw7MeqL-79" value="" style="line;strokeWidth=2;direction=west;html=1;" parent="1" vertex="1">
          <mxGeometry x="237" y="143" width="137" height="10" as="geometry" />
        </mxCell>
        <mxCell id="fMcfgkjwkaFw0rw7MeqL-82" value="" style="line;strokeWidth=2;direction=west;html=1;" parent="1" vertex="1">
          <mxGeometry x="-169" y="256" width="93" height="10" as="geometry" />
        </mxCell>
        <mxCell id="fMcfgkjwkaFw0rw7MeqL-83" value="" style="line;strokeWidth=2;direction=west;html=1;" parent="1" vertex="1">
          <mxGeometry x="111" y="258" width="93" height="10" as="geometry" />
        </mxCell>
        <mxCell id="fMcfgkjwkaFw0rw7MeqL-84" value="" style="line;strokeWidth=2;direction=west;html=1;" parent="1" vertex="1">
          <mxGeometry x="-22" y="579" width="83" height="10" as="geometry" />
        </mxCell>
        <mxCell id="fMcfgkjwkaFw0rw7MeqL-85" value="" style="line;strokeWidth=2;direction=west;html=1;" parent="1" vertex="1">
          <mxGeometry x="-21" y="364" width="81" height="10" as="geometry" />
        </mxCell>
        <mxCell id="fMcfgkjwkaFw0rw7MeqL-87" value="" style="line;strokeWidth=2;direction=west;html=1;" parent="1" vertex="1">
          <mxGeometry x="-164" y="364" width="93" height="10" as="geometry" />
        </mxCell>
        <mxCell id="fMcfgkjwkaFw0rw7MeqL-90" value="" style="line;strokeWidth=2;direction=west;html=1;" parent="1" vertex="1">
          <mxGeometry x="-169" y="579" width="93" height="10" as="geometry" />
        </mxCell>
        <mxCell id="fMcfgkjwkaFw0rw7MeqL-91" value="" style="edgeStyle=segmentEdgeStyle;endArrow=classic;html=1;curved=0;rounded=0;fontSize=12;entryX=0.048;entryY=0.983;entryDx=0;entryDy=0;entryPerimeter=0;exitX=0.211;exitY=-0.021;exitDx=0;exitDy=0;exitPerimeter=0;" parent="1" source="fMcfgkjwkaFw0rw7MeqL-38" target="fMcfgkjwkaFw0rw7MeqL-2" edge="1">
          <mxGeometry width="50" height="50" relative="1" as="geometry">
            <mxPoint x="-170" y="207" as="sourcePoint" />
            <mxPoint x="-247" y="167" as="targetPoint" />
            <Array as="points">
              <mxPoint x="-141" y="321" />
              <mxPoint x="-170" y="321" />
              <mxPoint x="-170" y="202" />
              <mxPoint x="-279" y="202" />
            </Array>
          </mxGeometry>
        </mxCell>
        <mxCell id="fMcfgkjwkaFw0rw7MeqL-92" value="" style="edgeStyle=segmentEdgeStyle;endArrow=classic;html=1;curved=0;rounded=0;fontSize=12;entryX=0;entryY=0.5;entryDx=0;entryDy=0;" parent="1" target="fMcfgkjwkaFw0rw7MeqL-2" edge="1">
          <mxGeometry width="50" height="50" relative="1" as="geometry">
            <mxPoint x="-343" y="518" as="sourcePoint" />
            <mxPoint x="-452" y="156" as="targetPoint" />
            <Array as="points">
              <mxPoint x="-343" y="337" />
              <mxPoint x="-343" y="203" />
              <mxPoint x="-452" y="203" />
              <mxPoint x="-452" y="136" />
            </Array>
          </mxGeometry>
        </mxCell>
        <mxCell id="fMcfgkjwkaFw0rw7MeqL-94" value="" style="endArrow=none;html=1;rounded=0;fontSize=12;startSize=8;endSize=8;curved=1;" parent="1" edge="1">
          <mxGeometry width="50" height="50" relative="1" as="geometry">
            <mxPoint x="-343" y="518" as="sourcePoint" />
            <mxPoint x="-126" y="518" as="targetPoint" />
          </mxGeometry>
        </mxCell>
        <mxCell id="fMcfgkjwkaFw0rw7MeqL-95" value="" style="endArrow=none;html=1;rounded=0;fontSize=12;startSize=8;endSize=8;curved=1;entryX=0.23;entryY=-0.025;entryDx=0;entryDy=0;entryPerimeter=0;" parent="1" target="fMcfgkjwkaFw0rw7MeqL-54" edge="1">
          <mxGeometry width="50" height="50" relative="1" as="geometry">
            <mxPoint x="-125.84" y="518" as="sourcePoint" />
            <mxPoint x="-126.00399999999999" y="549.56" as="targetPoint" />
          </mxGeometry>
        </mxCell>
        <mxCell id="fMcfgkjwkaFw0rw7MeqL-96" value="" style="endArrow=classic;html=1;rounded=0;fontSize=12;startSize=8;endSize=8;curved=1;entryX=0.096;entryY=0.989;entryDx=0;entryDy=0;entryPerimeter=0;" parent="1" target="fMcfgkjwkaFw0rw7MeqL-46" edge="1">
          <mxGeometry width="50" height="50" relative="1" as="geometry">
            <mxPoint x="-252" y="550" as="sourcePoint" />
            <mxPoint x="-275" y="428" as="targetPoint" />
          </mxGeometry>
        </mxCell>
        <mxCell id="fMcfgkjwkaFw0rw7MeqL-97" value="" style="endArrow=classic;html=1;rounded=0;fontSize=12;startSize=8;endSize=8;curved=1;exitX=0.092;exitY=0.992;exitDx=0;exitDy=0;exitPerimeter=0;" parent="1" source="fMcfgkjwkaFw0rw7MeqL-38" edge="1">
          <mxGeometry width="50" height="50" relative="1" as="geometry">
            <mxPoint x="-246" y="380" as="sourcePoint" />
            <mxPoint x="-242" y="450" as="targetPoint" />
          </mxGeometry>
        </mxCell>
        <mxCell id="fMcfgkjwkaFw0rw7MeqL-98" value="" style="edgeStyle=segmentEdgeStyle;endArrow=classic;html=1;curved=0;rounded=0;fontSize=12;entryX=0.074;entryY=1.025;entryDx=0;entryDy=0;entryPerimeter=0;exitX=0.411;exitY=0.05;exitDx=0;exitDy=0;exitPerimeter=0;" parent="1" source="fMcfgkjwkaFw0rw7MeqL-38" edge="1">
          <mxGeometry width="50" height="50" relative="1" as="geometry">
            <mxPoint x="27" y="308" as="sourcePoint" />
            <mxPoint x="-126" y="268" as="targetPoint" />
            <Array as="points">
              <mxPoint x="28" y="297" />
              <mxPoint x="-126" y="297" />
            </Array>
          </mxGeometry>
        </mxCell>
        <mxCell id="fMcfgkjwkaFw0rw7MeqL-99" value="" style="edgeStyle=segmentEdgeStyle;endArrow=classic;html=1;curved=0;rounded=0;fontSize=12;exitX=0.465;exitY=-0.001;exitDx=0;exitDy=0;exitPerimeter=0;" parent="1" source="fMcfgkjwkaFw0rw7MeqL-54" edge="1">
          <mxGeometry width="50" height="50" relative="1" as="geometry">
            <mxPoint x="5" y="343" as="sourcePoint" />
            <mxPoint x="-148" y="269" as="targetPoint" />
            <Array as="points">
              <mxPoint x="6" y="305" />
              <mxPoint x="-148" y="305" />
            </Array>
          </mxGeometry>
        </mxCell>
        <mxCell id="U8XAQQa5bbqCl7K_fhFv-3" value="" style="line;strokeWidth=2;direction=west;html=1;" vertex="1" parent="1">
          <mxGeometry x="239" y="258" width="137" height="10" as="geometry" />
        </mxCell>
        <mxCell id="U8XAQQa5bbqCl7K_fhFv-4" value="" style="edgeStyle=segmentEdgeStyle;endArrow=classic;html=1;curved=0;rounded=0;fontSize=12;entryX=0.074;entryY=1.025;entryDx=0;entryDy=0;entryPerimeter=0;" edge="1" parent="1">
          <mxGeometry width="50" height="50" relative="1" as="geometry">
            <mxPoint x="343" y="228" as="sourcePoint" />
            <mxPoint x="284" y="153" as="targetPoint" />
            <Array as="points">
              <mxPoint x="343" y="178" />
              <mxPoint x="284" y="178" />
            </Array>
          </mxGeometry>
        </mxCell>
        <mxCell id="U8XAQQa5bbqCl7K_fhFv-7" value="" style="line;strokeWidth=2;direction=west;html=1;" vertex="1" parent="1">
          <mxGeometry x="382" y="364" width="137" height="10" as="geometry" />
        </mxCell>
        <mxCell id="U8XAQQa5bbqCl7K_fhFv-8" value="" style="line;strokeWidth=2;direction=west;html=1;" vertex="1" parent="1">
          <mxGeometry x="382" y="579" width="137" height="10" as="geometry" />
        </mxCell>
        <mxCell id="U8XAQQa5bbqCl7K_fhFv-9" value="" style="edgeStyle=segmentEdgeStyle;endArrow=classic;html=1;curved=0;rounded=0;fontSize=12;entryX=0.074;entryY=1.025;entryDx=0;entryDy=0;entryPerimeter=0;" edge="1" parent="1" source="fMcfgkjwkaFw0rw7MeqL-38">
          <mxGeometry width="50" height="50" relative="1" as="geometry">
            <mxPoint x="410" y="228" as="sourcePoint" />
            <mxPoint x="351" y="153" as="targetPoint" />
            <Array as="points">
              <mxPoint x="410" y="191" />
              <mxPoint x="351" y="191" />
            </Array>
          </mxGeometry>
        </mxCell>
        <mxCell id="U8XAQQa5bbqCl7K_fhFv-10" value="" style="edgeStyle=segmentEdgeStyle;endArrow=classic;html=1;curved=0;rounded=0;fontSize=12;entryX=0.074;entryY=1.025;entryDx=0;entryDy=0;entryPerimeter=0;exitX=0.888;exitY=-0.039;exitDx=0;exitDy=0;exitPerimeter=0;" edge="1" parent="1" source="fMcfgkjwkaFw0rw7MeqL-54">
          <mxGeometry width="50" height="50" relative="1" as="geometry">
            <mxPoint x="430" y="337" as="sourcePoint" />
            <mxPoint x="371" y="153" as="targetPoint" />
            <Array as="points">
              <mxPoint x="430" y="178" />
              <mxPoint x="371" y="178" />
            </Array>
          </mxGeometry>
        </mxCell>
      </root>
    </mxGraphModel>
  </diagram>
</mxfile>
